<svg width="14" height="14" viewBox="0 0 14 14" fill="none" xmlns="http://www.w3.org/2000/svg">
<path d="M11.375 1.75H10.0625V1.3125C10.0625 1.19647 10.0164 1.08519 9.93436 1.00314C9.85231 0.921094 9.74103 0.875 9.625 0.875C9.50897 0.875 9.39769 0.921094 9.31564 1.00314C9.23359 1.08519 9.1875 1.19647 9.1875 1.3125V1.75H4.8125V1.3125C4.8125 1.19647 4.76641 1.08519 4.68436 1.00314C4.60231 0.921094 4.49103 0.875 4.375 0.875C4.25897 0.875 4.14769 0.921094 4.06564 1.00314C3.98359 1.08519 3.9375 1.19647 3.9375 1.3125V1.75H2.625C2.39294 1.75 2.17038 1.84219 2.00628 2.00628C1.84219 2.17038 1.75 2.39294 1.75 2.625V11.375C1.75 11.6071 1.84219 11.8296 2.00628 11.9937C2.17038 12.1578 2.39294 12.25 2.625 12.25H11.375C11.6071 12.25 11.8296 12.1578 11.9937 11.9937C12.1578 11.8296 12.25 11.6071 12.25 11.375V2.625C12.25 2.39294 12.1578 2.17038 11.9937 2.00628C11.8296 1.84219 11.6071 1.75 11.375 1.75ZM3.9375 2.625V3.0625C3.9375 3.17853 3.98359 3.28981 4.06564 3.37186C4.14769 3.45391 4.25897 3.5 4.375 3.5C4.49103 3.5 4.60231 3.45391 4.68436 3.37186C4.76641 3.28981 4.8125 3.17853 4.8125 3.0625V2.625H9.1875V3.0625C9.1875 3.17853 9.23359 3.28981 9.31564 3.37186C9.39769 3.45391 9.50897 3.5 9.625 3.5C9.74103 3.5 9.85231 3.45391 9.93436 3.37186C10.0164 3.28981 10.0625 3.17853 10.0625 3.0625V2.625H11.375V4.375H2.625V2.625H3.9375ZM11.375 11.375H2.625V5.25H11.375V11.375ZM7.875 8.3125C7.875 8.48556 7.82368 8.65473 7.72754 8.79862C7.63139 8.94252 7.49473 9.05467 7.33485 9.12089C7.17496 9.18712 6.99903 9.20445 6.8293 9.17069C6.65956 9.13692 6.50365 9.05359 6.38128 8.93122C6.25891 8.80885 6.17557 8.65294 6.14181 8.4832C6.10805 8.31347 6.12538 8.13754 6.19161 7.97765C6.25783 7.81777 6.36998 7.68111 6.51388 7.58496C6.65777 7.48882 6.82694 7.4375 7 7.4375C7.23206 7.4375 7.45462 7.52969 7.61872 7.69378C7.78281 7.85788 7.875 8.08044 7.875 8.3125Z" fill="#C3C3C4"/>
</svg>
